<?xml version="1.0" encoding="UTF-8"?>
<!-- Created with Inkscape (http://www.inkscape.org/) -->
<svg width="90" height="90" version="1.1" viewBox="0 0 23.812 23.813" xmlns="http://www.w3.org/2000/svg">
	<g stroke="#000">
		<path transform="scale(.26458)" d="m43 8-2 2v4l-9 9v11l8 8v4h-2l-6 4v5h13 13v-5l-6-4h-2v-4l8-8v-11l-9-9v-4l-2-2h-2-2zm-5 49v6h-4l-7 9 3 4h-8v8h23 23v-8h-8l3-4-7-9h-4v-6h-7-7z" fill="#fff" stroke-width="2"/>
		<path d="m12.171 9.525h-0.79375v-2.1167l2.6458-2.6458 0.52917 0.52917-2.3812 2.3812z" stroke-width=".52917"/>
	</g>
</svg>
