<?xml version="1.0" encoding="UTF-8"?>
<!-- Created with Inkscape (http://www.inkscape.org/) -->
<svg width="90" height="90" version="1.1" viewBox="0 0 23.812 23.813" xmlns="http://www.w3.org/2000/svg">
	<g stroke="#000">
		<path transform="scale(.26458)" d="m41 12-18 17v17l10 10-6 6v4h18 18v-12l-9-9h14l5-5v-6l-18-17v-5h-14zm-12 56-6 5 2 3h-5v8h25 25v-8h-5l2-3-6-5h-16-16z" fill="#fff" stroke-width="2"/>
		<path transform="scale(.26458)" d="m52 25-2 2v3l2 2h3l2-2v-3l-2-2z" fill="none" stroke-width="2"/>
		<path d="m13.229 10.848 1.0583 1.0583" fill="none" stroke-width=".52917"/>
	</g>
</svg>
